<svg xmlns="http://www.w3.org/2000/svg" width="158.382" height="20.192" viewBox="0 0 158.382 20.192">
  <g id="Group_2" data-name="Group 2" transform="translate(-425.77 -21.998)">
    <path id="Path_1" data-name="Path 1" d="M678.226-330.642a9.726,9.726,0,0,1,10.06-9.795,9.924,9.924,0,0,1,6.677,2.412l-2.529,2.765a5.7,5.7,0,0,0-3.912-1.441,5.928,5.928,0,0,0-6,6.06,5.9,5.9,0,0,0,5.853,6.148,6.051,6.051,0,0,0,4.559-1.971l2.559,2.882a10.158,10.158,0,0,1-7.207,2.824A9.745,9.745,0,0,1,678.226-330.642Z" transform="translate(-252.456 362.435)" fill="#0c0c66"/>
    <path id="Path_2" data-name="Path 2" d="M741.1-317.827c0-4.242,2.592-7.66,6.658-7.66a5.752,5.752,0,0,1,4.6,2.092v-1.8h3.86v14.73h-3.86v-1.768a5.687,5.687,0,0,1-4.6,2.062C743.691-310.168,741.1-313.585,741.1-317.827Zm11.165,0c0-2.3-1.472-4.007-3.505-4.007a3.726,3.726,0,0,0-3.653,4.007,3.709,3.709,0,0,0,3.653,4.006C750.791-313.821,752.264-315.47,752.264-317.827Z" transform="translate(-296.994 351.845)" fill="#0c0c66"/>
    <path id="Path_3" data-name="Path 3" d="M799.861-325.187h3.965v2.884c.421-1.231,1.953-3.184,5.257-3.184v4.386c-3.485,0-5.2,1.592-5.2,5.166v5.767h-4.025Z" transform="translate(-338.62 351.845)" fill="#0c0c66"/>
    <path id="Path_4" data-name="Path 4" d="M842.394-322.821v1.768h-3.741v-19.384H842.6v6.3a5.8,5.8,0,0,1,4.449-1.945c4.065,0,6.717,3.417,6.717,7.66s-2.592,7.659-6.658,7.659A5.924,5.924,0,0,1,842.394-322.821Zm7.365-5.6a3.726,3.726,0,0,0-3.653-4.007c-2.033,0-3.506,1.709-3.506,4.007,0,2.357,1.5,4.006,3.506,4.006A3.709,3.709,0,0,0,849.759-328.418Z" transform="translate(-366.1 362.435)" fill="#0c0c66"/>
    <path id="Path_5" data-name="Path 5" d="M896.3-317.827c0-4.242,2.592-7.66,6.658-7.66a5.753,5.753,0,0,1,4.6,2.092v-1.8h3.86v14.73h-3.86v-1.768a5.688,5.688,0,0,1-4.6,2.062C898.9-310.168,896.3-313.585,896.3-317.827Zm11.165,0c0-2.3-1.473-4.007-3.506-4.007a3.726,3.726,0,0,0-3.653,4.007,3.709,3.709,0,0,0,3.653,4.006C906-313.821,907.47-315.47,907.47-317.827Z" transform="translate(-406.939 351.845)" fill="#0c0c66"/>
    <path id="Path_6" data-name="Path 6" d="M954.921-325.187h3.935v2.013a5.6,5.6,0,0,1,4.746-2.313c3.965,0,5.347,2.553,5.347,6.668v8.65h-4.026v-8.14c0-2.193-.57-3.364-2.613-3.364-2.012,0-3.364,1.622-3.364,3.905v7.6h-4.025Z" transform="translate(-448.462 351.845)" fill="#0c0c66"/>
    <g id="Group_1" data-name="Group 1" transform="translate(522.353 21.998)">
      <path id="Path_7" data-name="Path 7" d="M1009.422-338.468a1.97,1.97,0,0,1,1.944-1.969,1.975,1.975,0,0,1,1.969,1.969,1.97,1.97,0,0,1-1.969,1.944A1.965,1.965,0,0,1,1009.422-338.468Z" transform="translate(-1009.422 340.437)" fill="#0c0c66"/>
      <rect id="Rectangle_1" data-name="Rectangle 1" width="3.914" height="14.972" transform="translate(0 4.706)" fill="#0c0c66"/>
    </g>
    <path id="Path_8" data-name="Path 8" d="M1028.232-317.827a7.71,7.71,0,0,1,7.866-7.66,7.717,7.717,0,0,1,7.9,7.66,7.717,7.717,0,0,1-7.9,7.659A7.71,7.71,0,0,1,1028.232-317.827Zm11.725,0a3.835,3.835,0,0,0-3.859-4.007,3.835,3.835,0,0,0-3.859,4.007,3.818,3.818,0,0,0,3.859,4.006A3.818,3.818,0,0,0,1039.957-317.827Z" transform="translate(-500.394 351.845)" fill="#0c0c66"/>
    <path id="Path_193" data-name="Path 193" d="M6.878.19a6.508,6.508,0,0,0,4.389-1.482L10.013-2.869A4.107,4.107,0,0,1,7.125-1.8,3.879,3.879,0,0,1,3.04-5.757a4.489,4.489,0,0,1,4.427-4.75,4.319,4.319,0,0,1,3.154,1.216l1.558-1.425A6.359,6.359,0,0,0,7.505-12.5,6.6,6.6,0,0,0,.817-5.776,5.793,5.793,0,0,0,6.878.19ZM16.4.19A3.455,3.455,0,0,0,19.285-1.1L19.076,0h1.976l1.824-9.4H20.767L20.482-8a3.6,3.6,0,0,0-3.173-1.6c-2.869,0-4.826,2.432-4.826,5.415C12.483-1.748,14.06.19,16.4.19Zm.627-2.033A2.387,2.387,0,0,1,14.611-4.37,2.92,2.92,0,0,1,17.48-7.562a2.389,2.389,0,0,1,2.375,2.6A2.953,2.953,0,0,1,17.024-1.843ZM23.2,0h2.109l.722-3.838a3.86,3.86,0,0,1,4.1-3.458l.437-2.3a4.349,4.349,0,0,0-3.8,2.052L27.132-9.4H25.023Zm11,.19a4.1,4.1,0,0,0,2.375-.7l-.3-1.577a3.059,3.059,0,0,1-1.444.456.7.7,0,0,1-.8-.76,4.424,4.424,0,0,1,.1-.836l.855-4.446H37.81L38.152-9.4H35.3l.456-2.28-2.185.437L33.212-9.4H31.749l-.342,1.729h1.482L32-3.021a5.609,5.609,0,0,0-.133,1.064C31.863-.532,32.661.19,34.2.19Z" transform="translate(546 42)" fill="#61bc08"/>
  </g>
</svg>
